{
    "asset" : {
        "generator" : "Khronos glTF Blender I/O v1.7.33",
        "version" : "2.0"
    },
    "scene" : 0,
    "scenes" : [
        {
            "name" : "Scene",
            "nodes" : [
                0,
                1,
                2,
                3,
                4,
                5,
                6
            ]
        }
    ],
    "nodes" : [
        {
            "mesh" : 0,
            "name" : "Cube",
            "scale" : [
                0.07942438125610352,
                0.07942438125610352,
                0.07942438125610352
            ],
            "translation" : [
                0,
                0.12486618757247925,
                0.07940161228179932
            ]
        },
        {
            "name" : "Cube.002",
            "scale" : [
                0.07942438125610352,
                0.07942438125610352,
                0.07942438125610352
            ],
            "translation" : [
                0,
                0.12486618757247925,
                0.07940161228179932
            ]
        },
        {
            "mesh" : 1,
            "name" : "Cube.003",
            "scale" : [
                0.07942438125610352,
                0.07942438125610352,
                0.07942438125610352
            ],
            "translation" : [
                0,
                -0.029656589031219482,
                0.11705875396728516
            ]
        },
        {
            "mesh" : 2,
            "name" : "Cube.004",
            "scale" : [
                0.07942438125610352,
                0.07942438125610352,
                0.07942438125610352
            ],
            "translation" : [
                0,
                0.028774917125701904,
                -0.038880884647369385
            ]
        },
        {
            "mesh" : 3,
            "name" : "Cylinder.001",
            "scale" : [
                0.07942438125610352,
                0.07942438125610352,
                0.07942438125610352
            ],
            "translation" : [
                0,
                0.12486618757247925,
                0.07940161228179932
            ]
        },
        {
            "mesh" : 4,
            "name" : "Cube.005",
            "scale" : [
                0.07942438125610352,
                0.07942438125610352,
                0.07942438125610352
            ],
            "translation" : [
                0,
                -0.04042297229170799,
                -0.1476493924856186
            ]
        },
        {
            "mesh" : 5,
            "name" : "Cube.001",
            "rotation" : [
                0,
                0.7071068286895752,
                0,
                0.7071067094802856
            ],
            "scale" : [
                0.21951310336589813,
                0.21951310336589813,
                0.21951310336589813
            ],
            "translation" : [
                0,
                0.22867648303508759,
                0.07940161228179932
            ]
        }
    ],
    "materials" : [
        {
            "doubleSided" : true,
            "name" : "Metal",
            "pbrMetallicRoughness" : {
                "baseColorFactor" : [
                    0.19598834216594696,
                    0.19598834216594696,
                    0.19598834216594696,
                    1
                ],
                "roughnessFactor" : 0.4000000059604645
            }
        },
        {
            "doubleSided" : true,
            "name" : "Sights",
            "pbrMetallicRoughness" : {
                "baseColorFactor" : [
                    0.35568615794181824,
                    0.8000000715255737,
                    0.014072985388338566,
                    1
                ],
                "metallicFactor" : 0,
                "roughnessFactor" : 0.5
            }
        },
        {
            "doubleSided" : true,
            "name" : "Barrel",
            "pbrMetallicRoughness" : {
                "baseColorFactor" : [
                    0.22025711834430695,
                    0.22025711834430695,
                    0.22025711834430695,
                    1
                ],
                "roughnessFactor" : 0.5
            }
        },
        {
            "doubleSided" : true,
            "name" : "Material.001",
            "pbrMetallicRoughness" : {
                "baseColorFactor" : [
                    0.10247376561164856,
                    0.10247376561164856,
                    0.10247376561164856,
                    1
                ],
                "roughnessFactor" : 0.4000000059604645
            }
        },
        {
            "doubleSided" : true,
            "name" : "Wood",
            "pbrMetallicRoughness" : {
                "baseColorFactor" : [
                    0.11927563697099686,
                    0.06255889683961868,
                    0.0008380874060094357,
                    1
                ],
                "metallicFactor" : 0,
                "roughnessFactor" : 0.5
            }
        }
    ],
    "meshes" : [
        {
            "name" : "Cube.001",
            "primitives" : [
                {
                    "attributes" : {
                        "POSITION" : 0,
                        "NORMAL" : 1,
                        "TEXCOORD_0" : 2
                    },
                    "indices" : 3,
                    "material" : 0
                },
                {
                    "attributes" : {
                        "POSITION" : 4,
                        "NORMAL" : 5,
                        "TEXCOORD_0" : 6
                    },
                    "indices" : 7,
                    "material" : 1
                },
                {
                    "attributes" : {
                        "POSITION" : 8,
                        "NORMAL" : 9,
                        "TEXCOORD_0" : 10
                    },
                    "indices" : 11,
                    "material" : 2
                }
            ]
        },
        {
            "name" : "Cube.004",
            "primitives" : [
                {
                    "attributes" : {
                        "POSITION" : 12,
                        "NORMAL" : 13,
                        "TEXCOORD_0" : 14
                    },
                    "indices" : 15,
                    "material" : 0
                }
            ]
        },
        {
            "name" : "Cube.005",
            "primitives" : [
                {
                    "attributes" : {
                        "POSITION" : 16,
                        "NORMAL" : 17,
                        "TEXCOORD_0" : 18
                    },
                    "indices" : 19,
                    "material" : 0
                }
            ]
        },
        {
            "name" : "Cylinder.001",
            "primitives" : [
                {
                    "attributes" : {
                        "POSITION" : 20,
                        "NORMAL" : 21,
                        "TEXCOORD_0" : 22
                    },
                    "indices" : 23,
                    "material" : 2
                }
            ]
        },
        {
            "name" : "Cube.007",
            "primitives" : [
                {
                    "attributes" : {
                        "POSITION" : 24,
                        "NORMAL" : 25,
                        "TEXCOORD_0" : 26
                    },
                    "indices" : 27,
                    "material" : 0
                }
            ]
        },
        {
            "name" : "Cube.000",
            "primitives" : [
                {
                    "attributes" : {
                        "POSITION" : 28,
                        "NORMAL" : 29,
                        "TEXCOORD_0" : 30
                    },
                    "indices" : 31,
                    "material" : 3
                },
                {
                    "attributes" : {
                        "POSITION" : 32,
                        "NORMAL" : 33,
                        "TEXCOORD_0" : 34
                    },
                    "indices" : 35,
                    "material" : 4
                }
            ]
        }
    ],
    "accessors" : [
        {
            "bufferView" : 0,
            "componentType" : 5126,
            "count" : 13059,
            "max" : [
                0.5384170413017273,
                1.0273135900497437,
                1.685575008392334
            ],
            "min" : [
                -0.5384170413017273,
                -1.6879827976226807,
                -3.519076108932495
            ],
            "type" : "VEC3"
        },
        {
            "bufferView" : 1,
            "componentType" : 5126,
            "count" : 13059,
            "type" : "VEC3"
        },
        {
            "bufferView" : 2,
            "componentType" : 5126,
            "count" : 13059,
            "type" : "VEC2"
        },
        {
            "bufferView" : 3,
            "componentType" : 5123,
            "count" : 57504,
            "type" : "SCALAR"
        },
        {
            "bufferView" : 4,
            "componentType" : 5126,
            "count" : 830,
            "max" : [
                0.34285688400268555,
                1.0901662111282349,
                1.606175184249878
            ],
            "min" : [
                -0.34285688400268555,
                0.9023721218109131,
                -3.163931131362915
            ],
            "type" : "VEC3"
        },
        {
            "bufferView" : 5,
            "componentType" : 5126,
            "count" : 830,
            "type" : "VEC3"
        },
        {
            "bufferView" : 6,
            "componentType" : 5126,
            "count" : 830,
            "type" : "VEC2"
        },
        {
            "bufferView" : 7,
            "componentType" : 5123,
            "count" : 3492,
            "type" : "SCALAR"
        },
        {
            "bufferView" : 8,
            "componentType" : 5126,
            "count" : 2638,
            "max" : [
                0.45151466131210327,
                0.7174467444419861,
                1.6823053359985352
            ],
            "min" : [
                -0.45151445269584656,
                -0.22138167917728424,
                -3.819262742996216
            ],
            "type" : "VEC3"
        },
        {
            "bufferView" : 9,
            "componentType" : 5126,
            "count" : 2638,
            "type" : "VEC3"
        },
        {
            "bufferView" : 10,
            "componentType" : 5126,
            "count" : 2638,
            "type" : "VEC2"
        },
        {
            "bufferView" : 11,
            "componentType" : 5123,
            "count" : 11538,
            "type" : "SCALAR"
        },
        {
            "bufferView" : 12,
            "componentType" : 5126,
            "count" : 9136,
            "max" : [
                0.4593474566936493,
                0.975875973701477,
                0.802882194519043
            ],
            "min" : [
                -0.4593474268913269,
                -0.5052365660667419,
                -0.8028824329376221
            ],
            "type" : "VEC3"
        },
        {
            "bufferView" : 13,
            "componentType" : 5126,
            "count" : 9136,
            "type" : "VEC3"
        },
        {
            "bufferView" : 14,
            "componentType" : 5126,
            "count" : 9136,
            "type" : "VEC2"
        },
        {
            "bufferView" : 15,
            "componentType" : 5123,
            "count" : 44184,
            "type" : "SCALAR"
        },
        {
            "bufferView" : 16,
            "componentType" : 5126,
            "count" : 288,
            "max" : [
                0.05496727675199509,
                0.31906193494796753,
                0.17745192348957062
            ],
            "min" : [
                -0.05496727675199509,
                -0.32939064502716064,
                -0.21263441443443298
            ],
            "type" : "VEC3"
        },
        {
            "bufferView" : 17,
            "componentType" : 5126,
            "count" : 288,
            "type" : "VEC3"
        },
        {
            "bufferView" : 18,
            "componentType" : 5126,
            "count" : 288,
            "type" : "VEC2"
        },
        {
            "bufferView" : 19,
            "componentType" : 5123,
            "count" : 1104,
            "type" : "SCALAR"
        },
        {
            "bufferView" : 20,
            "componentType" : 5126,
            "count" : 274,
            "max" : [
                0.4153977036476135,
                0.6815140247344971,
                1.9184099435806274
            ],
            "min" : [
                -0.415397584438324,
                -0.14928743243217468,
                -2.9633965492248535
            ],
            "type" : "VEC3"
        },
        {
            "bufferView" : 21,
            "componentType" : 5126,
            "count" : 274,
            "type" : "VEC3"
        },
        {
            "bufferView" : 22,
            "componentType" : 5126,
            "count" : 274,
            "type" : "VEC2"
        },
        {
            "bufferView" : 23,
            "componentType" : 5123,
            "count" : 768,
            "type" : "SCALAR"
        },
        {
            "bufferView" : 24,
            "componentType" : 5126,
            "count" : 9234,
            "max" : [
                0.5566715002059937,
                2.83073091506958,
                4.121896743774414
            ],
            "min" : [
                -0.5566715002059937,
                0.020785601809620857,
                -0.433988094329834
            ],
            "type" : "VEC3"
        },
        {
            "bufferView" : 25,
            "componentType" : 5126,
            "count" : 9234,
            "type" : "VEC3"
        },
        {
            "bufferView" : 26,
            "componentType" : 5126,
            "count" : 9234,
            "type" : "VEC2"
        },
        {
            "bufferView" : 27,
            "componentType" : 5123,
            "count" : 19008,
            "type" : "SCALAR"
        },
        {
            "bufferView" : 28,
            "componentType" : 5126,
            "count" : 4114,
            "max" : [
                1.5516228675842285,
                -0.3652283549308777,
                0.1210259273648262
            ],
            "min" : [
                0.7679117918014526,
                -1.6395255327224731,
                -0.1210261881351471
            ],
            "type" : "VEC3"
        },
        {
            "bufferView" : 29,
            "componentType" : 5126,
            "count" : 4114,
            "type" : "VEC3"
        },
        {
            "bufferView" : 30,
            "componentType" : 5126,
            "count" : 4114,
            "type" : "VEC2"
        },
        {
            "bufferView" : 31,
            "componentType" : 5123,
            "count" : 22272,
            "type" : "SCALAR"
        },
        {
            "bufferView" : 32,
            "componentType" : 5126,
            "count" : 5743,
            "max" : [
                1.4571949243545532,
                -0.8199626803398132,
                0.13595542311668396
            ],
            "min" : [
                0.8719236254692078,
                -1.509285569190979,
                -0.13595570623874664
            ],
            "type" : "VEC3"
        },
        {
            "bufferView" : 33,
            "componentType" : 5126,
            "count" : 5743,
            "type" : "VEC3"
        },
        {
            "bufferView" : 34,
            "componentType" : 5126,
            "count" : 5743,
            "type" : "VEC2"
        },
        {
            "bufferView" : 35,
            "componentType" : 5123,
            "count" : 30336,
            "type" : "SCALAR"
        }
    ],
    "bufferViews" : [
        {
            "buffer" : 0,
            "byteLength" : 156708,
            "byteOffset" : 0
        },
        {
            "buffer" : 0,
            "byteLength" : 156708,
            "byteOffset" : 156708
        },
        {
            "buffer" : 0,
            "byteLength" : 104472,
            "byteOffset" : 313416
        },
        {
            "buffer" : 0,
            "byteLength" : 115008,
            "byteOffset" : 417888
        },
        {
            "buffer" : 0,
            "byteLength" : 9960,
            "byteOffset" : 532896
        },
        {
            "buffer" : 0,
            "byteLength" : 9960,
            "byteOffset" : 542856
        },
        {
            "buffer" : 0,
            "byteLength" : 6640,
            "byteOffset" : 552816
        },
        {
            "buffer" : 0,
            "byteLength" : 6984,
            "byteOffset" : 559456
        },
        {
            "buffer" : 0,
            "byteLength" : 31656,
            "byteOffset" : 566440
        },
        {
            "buffer" : 0,
            "byteLength" : 31656,
            "byteOffset" : 598096
        },
        {
            "buffer" : 0,
            "byteLength" : 21104,
            "byteOffset" : 629752
        },
        {
            "buffer" : 0,
            "byteLength" : 23076,
            "byteOffset" : 650856
        },
        {
            "buffer" : 0,
            "byteLength" : 109632,
            "byteOffset" : 673932
        },
        {
            "buffer" : 0,
            "byteLength" : 109632,
            "byteOffset" : 783564
        },
        {
            "buffer" : 0,
            "byteLength" : 73088,
            "byteOffset" : 893196
        },
        {
            "buffer" : 0,
            "byteLength" : 88368,
            "byteOffset" : 966284
        },
        {
            "buffer" : 0,
            "byteLength" : 3456,
            "byteOffset" : 1054652
        },
        {
            "buffer" : 0,
            "byteLength" : 3456,
            "byteOffset" : 1058108
        },
        {
            "buffer" : 0,
            "byteLength" : 2304,
            "byteOffset" : 1061564
        },
        {
            "buffer" : 0,
            "byteLength" : 2208,
            "byteOffset" : 1063868
        },
        {
            "buffer" : 0,
            "byteLength" : 3288,
            "byteOffset" : 1066076
        },
        {
            "buffer" : 0,
            "byteLength" : 3288,
            "byteOffset" : 1069364
        },
        {
            "buffer" : 0,
            "byteLength" : 2192,
            "byteOffset" : 1072652
        },
        {
            "buffer" : 0,
            "byteLength" : 1536,
            "byteOffset" : 1074844
        },
        {
            "buffer" : 0,
            "byteLength" : 110808,
            "byteOffset" : 1076380
        },
        {
            "buffer" : 0,
            "byteLength" : 110808,
            "byteOffset" : 1187188
        },
        {
            "buffer" : 0,
            "byteLength" : 73872,
            "byteOffset" : 1297996
        },
        {
            "buffer" : 0,
            "byteLength" : 38016,
            "byteOffset" : 1371868
        },
        {
            "buffer" : 0,
            "byteLength" : 49368,
            "byteOffset" : 1409884
        },
        {
            "buffer" : 0,
            "byteLength" : 49368,
            "byteOffset" : 1459252
        },
        {
            "buffer" : 0,
            "byteLength" : 32912,
            "byteOffset" : 1508620
        },
        {
            "buffer" : 0,
            "byteLength" : 44544,
            "byteOffset" : 1541532
        },
        {
            "buffer" : 0,
            "byteLength" : 68916,
            "byteOffset" : 1586076
        },
        {
            "buffer" : 0,
            "byteLength" : 68916,
            "byteOffset" : 1654992
        },
        {
            "buffer" : 0,
            "byteLength" : 45944,
            "byteOffset" : 1723908
        },
        {
            "buffer" : 0,
            "byteLength" : 60672,
            "byteOffset" : 1769852
        }
    ],
    "buffers" : [
        {
            "byteLength" : 1830524,
            "uri" : "data:application/octet-stream;base64,"
        }
    ]
}
